<svg xmlns="http://www.w3.org/2000/svg" id="Layer_1" viewBox="0 0 600 200"><defs><style>      .st0 {        fill: #fff;      }      .st1 {        fill: #f8981d;      }    </style></defs><g id="aws-p"><g><path class="st0" d="M206.41,99.03c2.32,1.43,5.71,2.5,10.18,3.57s8.93,1.61,13.57,1.61,8.75-.54,12.5-1.79,7.14-2.86,9.82-5,4.82-4.82,6.43-7.86c1.61-3.04,2.32-6.43,2.32-10.36,0-4.64-1.43-8.75-4.11-12.32s-7.32-6.43-13.57-8.57l-12.5-3.93c-4.82-1.61-8.04-3.21-9.64-4.82s-2.68-3.75-2.68-6.25c0-3.57,1.43-6.25,4.11-7.86,2.86-1.61,6.79-2.5,11.79-2.5,6.25,0,11.96,1.07,16.96,3.39,1.61.71,2.68,1.07,3.39,1.07,1.43,0,1.96-.89,1.96-2.86v-3.93c0-1.25-.18-2.14-.71-2.86-.54-.71-1.43-1.43-2.68-2.14-.89-.54-2.14-1.07-3.75-1.61s-3.21-1.07-5-1.43-3.75-.71-5.71-1.07c-1.96-.36-3.93-.36-5.89-.36-3.93,0-7.68.54-11.07,1.61-3.57,1.07-6.61,2.5-9.11,4.46-2.68,1.96-4.82,4.46-6.25,7.32-1.61,2.86-2.32,6.07-2.32,9.82,0,4.64,1.43,8.93,4.46,12.86,2.86,3.93,7.68,6.96,14.11,8.93l12.86,3.93c4.29,1.43,7.32,3.04,8.93,4.64s2.32,3.75,2.32,6.25c0,3.57-1.61,6.43-4.64,8.39-3.04,1.96-7.32,2.86-12.86,2.86-3.57,0-6.96-.36-10.54-1.07-3.57-.71-6.79-1.79-9.64-3.04-.89-.36-1.61-.71-2.14-.89-.54-.18-1.07-.36-1.61-.36-1.43,0-1.96.89-1.96,2.68v4.46c0,.89.18,1.61.54,2.5-.18.89.71,1.61,2.14,2.5"></path><path class="st0" d="M57.31,56.18c-3.21-.54-6.43-.71-9.29-.71-9.11,0-16.25,2.32-21.61,6.96s-8.04,10.71-8.04,18.21,2.14,12.86,6.43,16.96c4.29,4.29,10.18,6.25,17.68,6.25,10.36,0,19.11-4.11,25.89-12.14.89,1.96,1.79,3.75,2.68,5.18.89,1.43,1.96,2.86,3.21,4.11.89.89,1.79,1.25,2.68,1.25.71,0,1.43-.36,2.32-.71l5.54-3.75c1.07-.89,1.79-1.79,1.79-2.68,0-.54-.18-1.25-.54-1.96-1.25-2.32-2.14-4.46-2.86-6.25-.71-1.96-1.07-4.64-1.07-7.86v-28.93c0-9.64-2.5-16.96-7.32-21.61-5.18-5-12.86-7.32-23.39-7.32-4.82,0-9.46.54-13.75,1.61-4.29,1.07-8.04,2.5-11.07,3.93-1.25.54-2.14,1.25-2.5,1.79-.36.89-.54,1.96-.54,3.39v4.29c0,1.79.71,2.86,1.79,2.86.36,0,.71,0,1.43-.18.71-.18,1.61-.54,3.04-1.07,3.04-1.25,6.25-2.32,9.46-3.04s6.43-1.25,9.46-1.25c6.79,0,11.61,1.43,14.28,4.11,2.86,2.68,4.11,7.5,4.11,14.11v6.43c-3.21-.89-6.61-1.61-9.82-1.96M67.31,71.71c0,3.04-.36,5.54-.89,7.68-.54,2.14-1.61,3.93-3.04,5.71-2.32,2.68-5.18,4.46-8.39,5.71-3.21,1.07-6.25,1.61-9.11,1.61-3.93,0-7.14-1.07-9.29-3.21-2.14-2.14-3.21-5.18-3.21-9.29,0-4.46,1.43-7.86,4.29-10.18,2.86-2.32,7.32-3.57,13.03-3.57,2.68,0,5.36.18,8.21.54,2.86.36,5.54.89,8.04,1.43l.36,3.57h0Z"></path><path class="st0" d="M111.59,97.43c.54,1.79,1.07,2.86,1.79,3.39.71.54,1.79.89,3.39.89h7.5c1.61,0,2.86-.36,3.57-.89s1.25-1.79,1.61-3.57l13.57-56.78,14.11,56.78c.36,1.79,1.07,2.86,1.61,3.57.71.54,1.96.89,3.57.89h7.5c1.61,0,2.68-.36,3.39-.89s1.43-1.79,1.79-3.39l21.43-68.21c.36-.89.54-1.61.54-2.14.18-.54.18-.89.18-1.43,0-1.43-.71-2.14-2.14-2.14h-8.21c-1.61,0-2.86.36-3.39.89-.71.54-1.25,1.79-1.79,3.39l-15.36,59.1-13.75-59.1c-.36-1.79-1.07-2.86-1.61-3.39-.71-.54-1.96-.89-3.57-.89h-7.14c-1.61,0-2.86.36-3.57.89-.71.54-1.25,1.79-1.61,3.39l-13.75,58.39-15-58.39c-.54-1.79-1.07-2.86-1.79-3.39-.71-.54-1.79-.89-3.57-.89h-8.57c-1.43,0-2.14.71-2.14,2.14,0,.54.18,1.79.71,3.57l20.71,68.21h0Z"></path><path class="st1" d="M242.66,140.1c-32.5,13.75-68.03,20.53-100.17,20.53-47.68,0-93.92-13.03-131.24-34.82-3.21-1.96-5.71,1.43-3.04,3.93,34.64,31.25,80.35,50,131.24,50,36.25,0,78.39-11.43,107.49-32.86,4.82-3.57.71-8.75-4.29-6.79"></path><path class="st1" d="M224.45,128.14c-2.5,1.79-2.14,4.29.71,3.93,9.29-1.07,30.18-3.57,33.93,1.07,3.75,4.82-4.11,24.28-7.68,33.03-1.07,2.68,1.25,3.75,3.57,1.79,15.53-13.03,19.64-40.35,16.43-44.28-3.21-3.93-30.36-7.14-46.96,4.46"></path><path class="st0" d="M341.22,83.5c-.71,0-1.07-.36-1.07-1.07v-47.68c0-.71.36-1.07,1.07-1.07h1.43c.71,0,1.07.36,1.25,1.07l.36,2.86c2.14-1.79,4.29-3.04,6.25-3.75s4.11-1.25,6.25-1.25c4.46,0,8.04,1.61,10.71,4.82,2.68,3.21,3.93,7.68,3.93,13.39s-1.43,10.36-4.11,13.75c-2.68,3.39-6.43,5.18-11.07,5.18-4.29,0-8.21-1.61-11.79-4.82v17.32c0,.71-.36,1.07-1.07,1.07l-2.14.18h0ZM355.51,66.18c3.75,0,6.79-1.25,8.75-3.75,1.96-2.5,2.86-6.25,2.86-11.25,0-10-3.75-14.82-11.25-14.82-3.93,0-7.86,1.43-11.61,4.46v20.53c1.96,1.61,3.75,2.86,5.54,3.57,1.79.89,3.75,1.25,5.71,1.25"></path><path class="st0" d="M388.54,69.75c-3.21,0-5.71-.89-7.68-2.68s-2.86-4.29-2.86-7.32c0-3.39,1.25-6.07,3.57-8.04s5.54-2.86,9.64-2.86c3.21,0,6.43.54,10,1.61v-6.07c0-2.86-.71-4.82-1.96-6.07-1.43-1.25-3.57-1.79-6.79-1.79s-6.61.54-10.18,1.79c-.36.18-.71.18-1.07.18-.54,0-.71-.36-.71-.89v-1.25c0-.36,0-.71.18-.89s.36-.36.71-.54c3.75-1.43,7.5-2.14,11.79-2.14s7.14.89,9.11,2.5c1.96,1.79,3.04,4.29,3.04,7.86v24.82c0,.71-.36,1.07-1.07,1.07h-1.43c-.71,0-1.07-.36-1.07-1.07l-.18-3.04c-4.46,3.21-8.57,4.82-13.03,4.82M389.08,66.18c1.79,0,3.75-.36,5.71-1.07,1.96-.71,4.11-1.79,6.25-3.04v-8.75c-3.21-.89-6.25-1.25-9.11-1.25-6.61,0-9.82,2.5-9.82,7.5,0,2.14.54,3.75,1.79,5,1.25,1.07,3.04,1.61,5.18,1.61"></path><path class="st0" d="M417.11,69.04c-.71,0-1.07-.36-1.07-1.07v-33.21c0-.71.36-1.07,1.07-1.07h1.43c.71,0,1.07.36,1.25,1.07l.36,4.11c1.79-1.96,3.57-3.39,5.18-4.11,1.79-.89,3.57-1.25,5.71-1.25h1.79c.71,0,1.07.36,1.07,1.07v1.79c0,.18,0,.36-.18.54s-.36.18-.54.18h-2.5c-2.14,0-4.11.36-5.71,1.25s-3.21,2.14-4.82,3.93v25.89c0,.71-.36,1.07-1.07,1.07l-1.96-.18h0Z"></path><path class="st0" d="M452.47,69.39c-2.86,0-4.82-.71-6.25-2.14-1.43-1.43-2.14-3.57-2.14-6.43v-23.57h-5.54c-.71,0-1.07-.36-1.07-1.07v-.71c0-.36,0-.71.18-.89s.36-.36.89-.36l5.71-.54.54-9.29c0-.36.18-.71.36-.89s.36-.18.71-.18h1.25c.71,0,1.07.36,1.07,1.07v9.29h10.18c.71,0,1.07.36,1.07,1.07v1.43c0,.71-.36,1.07-1.07,1.07h-10.18v23.39c0,1.96.36,3.21,1.25,4.11s2.14,1.25,4.11,1.25c1.43,0,2.5-.18,3.57-.36.54,0,.89-.18,1.25-.18s.54-.18.71-.18c.54,0,.71.36.71.89v1.07c0,.89-.18,1.25-.71,1.43-2.14.54-4.29.89-6.61.71"></path><path class="st0" d="M468,69.04c-.71,0-1.07-.36-1.07-1.07v-33.21c0-.71.36-1.07,1.07-1.07h1.43c.71,0,1.07.36,1.25,1.07l.36,3.04c2.32-1.61,4.64-2.86,7.14-3.75s5-1.43,7.32-1.43c3.39,0,6.07.89,7.86,2.68,1.79,1.79,2.68,4.46,2.68,8.04v24.64c0,.71-.36,1.07-1.07,1.07h-1.96c-.71,0-1.07-.36-1.07-1.07v-22.86c0-3.04-.54-5.18-1.79-6.61s-3.04-2.14-5.54-2.14c-4.64,0-9.29,1.43-13.75,4.46v27.14c0,.71-.36,1.07-1.07,1.07h-1.79Z"></path><path class="st0" d="M521.75,70.11c-5.54,0-9.82-1.61-12.5-4.64-2.68-3.04-4.29-7.86-4.29-14.11,0-5.89,1.43-10.54,4.29-13.75s6.79-4.82,11.96-4.82c4.29,0,7.5,1.25,9.82,3.57,2.32,2.5,3.39,5.89,3.39,10.54,0,1.96-.18,3.21-.36,4.29-.18.71-.54,1.07-1.25,1.07h-23.93c0,5,1.07,8.57,3.21,10.89,2.14,2.32,5.36,3.57,9.82,3.57,3.39,0,6.61-.54,9.64-1.79.54-.18,1.07-.36,1.25-.36s.36,0,.54.18c.18.18.18.36.18.54v1.07c0,.71-.18,1.25-.71,1.43-3.39,1.43-7.14,2.32-11.07,2.32M530.32,48.86v-2.32c0-3.39-.89-5.89-2.5-7.68s-4.11-2.5-7.14-2.5c-7.32,0-11.25,4.11-11.79,12.5h21.43Z"></path><path class="st0" d="M544.07,69.04c-.71,0-1.07-.36-1.07-1.07v-33.21c0-.71.36-1.07,1.07-1.07h1.43c.71,0,1.07.36,1.25,1.07l.36,4.11c1.79-1.96,3.57-3.39,5.18-4.11,1.79-.89,3.57-1.25,5.71-1.25h1.79c.71,0,1.07.36,1.07,1.07v1.79c0,.18,0,.36-.18.54s-.36.18-.54.18h-2.5c-2.14,0-4.11.36-5.71,1.25s-3.21,2.14-4.82,3.93v25.89c0,.71-.36,1.07-1.07,1.07l-1.96-.18h0Z"></path><path class="st0" d="M341.22,146.89c-.71,0-1.07-.36-1.07-1.07v-33.03c0-.71.36-1.07,1.07-1.07h1.43c.71,0,1.07.36,1.25,1.07l.36,3.04c2.32-1.61,4.64-2.86,7.14-3.75s5-1.43,7.32-1.43c3.39,0,6.07.89,7.86,2.68s2.68,4.46,2.68,8.04v24.64c0,.71-.36,1.07-1.07,1.07h-1.96c-.71,0-1.07-.36-1.07-1.07v-23.03c0-3.04-.54-5.18-1.79-6.61-1.07-1.43-3.04-2.14-5.54-2.14-4.64,0-9.29,1.43-13.75,4.46v27.14c0,.71-.36,1.07-1.07,1.07h-1.79Z"></path><path class="st0" d="M394.97,147.96c-5.54,0-9.82-1.61-12.5-4.82-2.86-3.21-4.29-7.86-4.29-14.11,0-5.89,1.43-10.54,4.29-13.75,2.86-3.21,6.79-4.82,11.96-4.82,4.29,0,7.5,1.25,9.82,3.57,2.32,2.5,3.39,5.89,3.39,10.54,0,1.79-.18,3.21-.36,4.29-.18.71-.54,1.07-1.25,1.07h-23.93c0,5,1.07,8.57,3.21,10.89,2.14,2.32,5.36,3.57,9.82,3.57,3.39,0,6.61-.54,9.64-1.79.54-.18,1.07-.36,1.25-.36s.36,0,.54.18.18.36.18.54v1.07c0,.71-.18,1.25-.71,1.43-3.57,1.79-7.14,2.5-11.07,2.5M403.54,126.71v-2.32c0-3.39-.89-5.89-2.5-7.68s-4.11-2.68-7.32-2.68c-7.32,0-11.25,4.11-11.79,12.5h21.61v.18Z"></path><path class="st0" d="M427.11,147.42c-2.86,0-4.82-.71-6.25-2.14-1.43-1.43-2.14-3.57-2.14-6.43v-23.57h-5.54c-.71,0-1.07-.36-1.07-1.07v-.71c0-.36,0-.71.18-.89s.36-.36.89-.36l5.71-.54.54-9.29c0-.36.18-.71.36-.89s.36-.18.71-.18h1.25c.71,0,1.07.36,1.07,1.07v9.29h10.18c.71,0,1.07.36,1.07,1.07v1.43c0,.71-.36,1.07-1.07,1.07h-10.18v23.39c0,1.96.36,3.21,1.25,4.11.89.71,2.14,1.25,4.11,1.25,1.43,0,2.5-.18,3.57-.36.54-.18.89-.18,1.25-.18s.54-.18.71-.18c.54,0,.71.36.71.89v1.07c0,.71-.18,1.25-.71,1.43-1.96.36-4.11.71-6.61.71"></path><path class="st0" d="M450.15,146.89c-.71,0-1.07-.36-1.43-1.07l-11.07-32.68c-.18-.54-.36-.89-.36-1.07,0-.36.36-.54.89-.54h2.32c.54,0,1.07.36,1.25.89l9.64,29.82,8.57-29.64c.18-.71.71-.89,1.25-.89h2.5c.71,0,1.07.36,1.25.89l8.39,29.82,9.82-30c.18-.54.54-.89,1.25-.89h2.14c.54,0,.89.18.89.54,0,.18,0,.54-.36,1.07l-11.43,32.68c-.18.71-.71,1.07-1.43,1.07h-2.32c-.71,0-1.07-.36-1.43-1.07l-8.57-29.82-8.39,29.82c-.18.71-.71,1.07-1.25,1.07h-2.14Z"></path><path class="st0" d="M508.36,147.96c-5.18,0-9.11-1.61-11.96-5-2.86-3.39-4.29-7.86-4.29-13.75s1.43-10.54,4.29-13.75c2.86-3.21,6.79-5,11.96-5s9.11,1.61,11.96,5,4.29,7.86,4.29,13.75-1.43,10.54-4.29,13.75-6.96,5-11.96,5M508.36,144.39c8.04,0,12.14-5,12.14-15.18s-4.11-15-12.14-15-12.14,5-12.14,15,3.93,15.18,12.14,15.18"></path><path class="st0" d="M534.78,146.89c-.71,0-1.07-.36-1.07-1.07v-33.03c0-.71.36-1.07,1.07-1.07h1.43c.71,0,1.07.36,1.25,1.07l.36,4.11c1.79-1.96,3.57-3.39,5.18-4.11,1.61-.71,3.57-1.25,5.71-1.25h1.79c.71,0,1.07.36,1.07,1.07v1.79c0,.18,0,.36-.18.54s-.36.18-.54.18h-2.5c-2.14,0-4.11.36-5.71,1.25-1.61.89-3.21,2.14-4.82,3.93v25.89c0,.71-.36,1.07-1.07,1.07h-1.96v-.36Z"></path><path class="st0" d="M558.89,146.89c-.71,0-1.07-.36-1.07-1.07v-49.64c0-.71.36-1.07,1.07-1.07h1.96c.71,0,1.07.36,1.07,1.07v31.25l16.78-15c.54-.54,1.07-.71,1.79-.71h2.5c.54,0,.89.18.89.54,0,.18-.18.54-.71,1.07l-17.14,15,18.39,16.96c.36.36.71.71.71.89,0,.54-.18.71-.89.71h-3.04c-.54,0-1.07-.18-1.61-.54l-17.86-16.61v16.25c0,.71-.36,1.07-1.07,1.07h-1.79v-.18Z"></path></g></g></svg>