<svg xmlns="http://www.w3.org/2000/svg" id="Layer_1" viewBox="0 0 600 200"><defs><style>      .st0 {        fill: #fff;      }    </style></defs><path class="st0" d="M87.23,75.48c23.87,24.05,15.21,66.24-16.79,77.7-37.77,13.52-73.47-22.46-60.24-60.24,11.21-32.01,53.03-41.65,77.03-17.46ZM42.47,89.4h-7.84v39.2h7.84v-39.2ZM73.83,89.4h-23.52v7.84h23.52v-7.84ZM73.83,105.08h-23.52v7.84h23.52v-7.84ZM73.83,120.76h-23.52v7.84h23.52v-7.84Z"></path><path class="st0" d="M271.11,85.22l3.4,9.93c1.22.26.84-.16,1.17-.67.98-1.51,1.46-2.99,2.74-4.56,8.45-10.34,24.25-6.6,28.23,5.76,4.01-13.89,24.67-16.55,29.78-2.08.26.72,1.32,4.53,1.32,4.95v32.66h-16.2v-27.44c0-.83-1.6-3.23-2.33-3.94-4.15-4.04-9.33-1.58-12.83,1.85v29.53h-16.2v-26.91c0-2.33-3.26-5.93-5.61-6.41-4.18-.85-6.16,1.47-9.55,3.01v30.31h-16.2v-33.19l-3.66-12.8h15.94Z"></path><path class="st0" d="M521.06,83.8c13.74-1.55,27.53,4.26,30.71,18.65,8.44,38.21-57.27,42.11-52.39,1.47,1.32-11,11.02-18.92,21.69-20.12ZM525.71,96.92c-12.6.05-12.1,21.1-1.67,22.28,14.51,1.64,14.93-22.33,1.67-22.28Z"></path><path class="st0" d="M433.38,131.21v-27.44c0-1.08-1.92-3.69-2.88-4.44-4.6-3.57-10.5-2.04-14.37,1.83v30.05h-16.72v-34.23c0-2.51-3.46-8.61-3.14-11.76h15.94l3.4,10.45,2.91-4.66c8.29-11.1,26.73-9.07,30.27,5.18,1.75,7.04,2.19,25.91,1.33,33.22-.09.76-.06,1.34-.81,1.8h-15.94Z"></path><path class="st0" d="M173.65,112.92h-31.36c2.9,11.7,18.93,6.69,27.17,4.18.06,2.86,2.14,7.07,2.12,9.7,0,.98-.12,1.16-.87,1.75-1.16.91-6.29,2.62-7.94,3.03-20.41,5.12-40.48-2.15-38.25-26.23,1.75-18.87,23.6-27.01,39.03-18.14,4.38,2.52,10.09,10.46,10.09,15.52v10.19ZM156.88,104.51c-.08-6.3-3.7-9.5-10.03-8.2-4.59.94-6.14,7.88-5.6,11.9l15.64-3.7Z"></path><path class="st0" d="M251.51,112.92h-31.36c3.12,11.57,18.83,6.86,27.15,4.19.19,2.24,2.84,9.39,1.86,10.97-.64,1.03-8.53,3.61-10.18,3.94-19.97,4.06-38.86-3.39-36.55-26.62,1.86-18.68,22.52-26.69,38.27-18.54,4.64,2.4,10.79,10.05,10.79,15.34v10.71ZM234.73,104.5c.22-3.55-1.63-7.66-5.46-8.27-8.06-1.27-10.52,5.05-10.16,11.98l15.62-3.72Z"></path><path class="st0" d="M392.62,112.92h-31.36c3.24,11.27,18.63,7.2,26.86,4.2.78.24,2.75,9.35,2.33,10.61-7.04,4.93-17.34,5.78-25.73,4.99-32.53-3.07-26.62-54.97,9.73-48.4,14.43,2.61,20.09,14.94,18.16,28.61ZM375.83,104.49c-.49-14.35-17.88-9.07-15.61,3.72l15.61-3.72Z"></path><path class="st0" d="M478.32,74.25v10.97h15.94l.78.78v11.24h-15.94l-.78.78v13.59c0,.8,1.24,4.19,1.85,4.94,3.73,4.61,13.82-.02,14.35.55l1.26,12.6c-9.31,3.36-26.98,5.17-32.03-5.61-.42-.9-1.63-4.43-1.63-5.16v-21.69h-7.32v-12.02h7.32v-7.32l16.2-3.66Z"></path><path class="st0" d="M592.78,84.18v18.81l-17.25-2.61v30.83h-16.72v-34.75l-3.14-11.24h15.94l3.66,9.93c3.91-6.55,9.17-12.02,17.51-10.97Z"></path><polygon class="st0" points="196.12 131.21 180.44 131.21 180.44 71.11 195.33 71.11 196.12 71.9 196.12 131.21"></polygon></svg>