<svg xmlns="http://www.w3.org/2000/svg" id="Layer_1" viewBox="0 0 400 200"><defs><style>      .st0 {        fill: #8d8f91;      }      .st1 {        fill: #31b356;      }      .st2 {        fill: #4197d2;      }      .st3 {        fill: #4097d1;      }      .st4 {        fill: #3c94d0;      }      .st5 {        fill: #ee4b3b;      }      .st6 {        fill: #8d8f92;      }      .st7 {        fill: #fec314;      }      .st8 {        fill: #8c8e91;      }    </style></defs><polygon class="st4" points="50.79 14 50.81 184.43 50.28 186.67 4.71 186.67 4.71 14 50.79 14"></polygon><path class="st8" d="M95.85,135.53v28.36h-9.11v-69.88h27.09c.93,0,5.04,1.46,6.17,1.94,14.8,6.27,16.83,26.58,3.67,35.75-1.59,1.11-7.13,3.83-8.83,3.83h-18.99ZM95.85,126.92h17.47c.19,0,3.09-1.24,3.56-1.5,7.02-3.93,8.26-13.63,2.53-19.28-1.51-1.49-5.59-3.53-7.61-3.53h-15.95v24.3Z"></path><path class="st8" d="M177.88,163.88h-8.61l-.25-6.58c-7.57,13.17-32.2,10.02-33.67-5.83-1.69-18.17,20.97-22.71,33.91-15.95.87-13.52-17.87-17.46-23.61-6.03l-7.78-2.83c-1.94-1.51,3.54-6.81,4.82-7.83,9.32-7.47,26.67-5.6,32.73,5.22.78,1.39,2.45,5.27,2.45,6.67v33.17ZM156.52,140.23c-14.61.77-15.49,16.71-2.13,17.02,4.46.1,9.38-2.59,12.06-6.07,1.29-1.68,3.95-6.53,2.33-8.32-1.82-2-9.53-2.77-12.25-2.63Z"></path><path class="st8" d="M356.62,141.6h-37.47c.08,15.52,20.41,21.65,28.18,7.65l7.56,2.98c.71,1.13-3.29,6.19-4.24,7.1-8.01,7.73-22.04,8.23-30.95,1.72-19.92-14.54-8.34-51.88,19.31-46.15,8.1,1.68,17.61,10.83,17.61,19.36v7.34ZM347,134.01c-2.48-15.3-24.11-14.69-27.34,0h27.34Z"></path><path class="st0" d="M302.44,163.88h-9.11v-28.61c0-.55-.64-3.96-.85-4.72-2.09-7.71-11.88-10.09-17.89-5.42-2.08,1.62-5.56,7.1-5.56,9.63v29.11h-9.11v-48.1h8.61v6.58c8.28-11.23,27.55-11.03,32.43,3.27.38,1.12,1.5,5.19,1.5,6.1v32.15Z"></path><path class="st8" d="M239.15,101.6v14.18h11.65v8.61h-11.65v25.57c0,.2,1.08,3.37,1.3,3.76,2.53,4.46,9.31,1.65,9.81,2.09l2.51,7.28c-6.41,3.67-17.39,1.62-20.92-5.33-.45-.89-1.82-5.02-1.82-5.77v-27.6h-8.1v-8.61h8.1v-14.18h9.11Z"></path><path class="st3" d="M120.66,60.59h-13.67v-6.08h19.49c1.19,1.35.91,4.53.75,6.32-2.02,23.03-35.46,22.96-41.15,1.67-5.63-21.07,20.13-36.31,35.55-21.34l-3.83,4.18c-12.29-10.26-30.06,1.17-25.02,16.54,4.5,13.69,26.51,14.19,27.88-1.29Z"></path><path class="st2" d="M219.91,76.54c-.36,4.41-1.56,9.18-5.4,11.82-6.54,4.49-18.75,2.29-19.87-6.45l4.67-1.51c5.27,7.87,14.91,5.11,14.53-4.61-2.23.83-3.76,2.28-6.32,2.53-5.37.52-10.53-2.58-12.93-7.33-6.26-12.38,7.12-26.28,19-17.98l.53-1.56,5.8.03c-.48,8.14.65,17.01,0,25.06ZM206.13,56.14c-8.03.84-9.33,13.1-2.02,15.94,11.8,4.59,13.56-17.15,2.02-15.94Z"></path><path class="st6" d="M373.33,123.88l3.53-4.82c5.16-4.2,11.37-5.33,17.73-3.28l-3.54,8.37c-2.17.27-3.97-.54-6.29-.23-5.04.67-10.93,6.73-10.93,11.85v28.1h-9.11v-48.1h8.61v8.1Z"></path><path class="st8" d="M215.35,114.77v9.11c-5.76-.49-12.38.52-15.92,5.6-.59.85-2.31,4.48-2.31,5.28v29.11h-9.11v-48.1h8.61v8.1l2.28-3.55c3.98-4.87,10.5-5.87,16.46-5.57Z"></path><path class="st5" d="M142.31,50.59c19.44-2.62,21.64,25.59,4.37,27.66-19.23,2.3-21.66-25.33-4.37-27.66ZM149.86,70.54c8.1-8.07-5.25-20.86-11.7-10.94-5.27,8.11,5.03,17.59,11.7,10.94Z"></path><path class="st5" d="M243.2,68.19c-.07,2.96,4.21,4.71,6.78,4.53,3.14-.22,4.86-3.43,6.16-3.55.93-.08,5.2,2.35,4.55,3.58-.69,1.3-4.25,3.82-5.7,4.43-13.05,5.49-24.42-8.43-17.45-20.49,4.52-7.82,16.08-8.44,21.28-.83.64.94,2.47,4.32,1.89,5.24-.64,1-15.17,6.36-17.5,7.09ZM241.68,63.62l11.12-4.32c1.88-1.51-1.48-3.07-2.81-3.26-4.41-.6-8.46,3.22-8.31,7.57Z"></path><path class="st7" d="M173.71,50.59c19.25-2.53,21.36,25.46,4.39,27.67-19.17,2.5-22.17-25.33-4.39-27.67ZM174.73,56.13c-8.03,1.09-9.01,14.1-.8,16.26,11.9,3.14,12.86-17.9.8-16.26Z"></path><rect class="st1" x="225.48" y="36.79" width="6.08" height="40.51"></rect></svg>