<svg xmlns="http://www.w3.org/2000/svg" id="Layer_1" viewBox="0 0 600 200"><defs><style>      .st0 {        fill: #4587f2;      }      .st1 {        fill: #36a854;      }      .st2 {        fill: #fabc07;      }      .st3 {        fill: #fff;      }      .st4 {        fill: #e94537;      }    </style></defs><path class="st0" d="M83.17,174.33v-28.78c10.99-.1,29.13,1.58,39.07-.23,18.66-3.4,15.56-33.02-4.14-33.61-.07-10.28-4.59-24.21-13.04-30.66l18.9-18.86c9.42,8.31,10.72,10.06,16.77,21.48,5.53,10.44,7.17,9.99,13.49,18.3,18.18,23.93,7.05,60.12-21.33,69.85-13,4.46-35.39,2.5-49.72,2.51Z"></path><path class="st2" d="M58.3,85.01c9.25,1.77,21.75,8.34,25.71,17.22l-19.26,19.49c-1.44.58-2.78-3.78-4.53-5.39-14.95-13.68-37.96,6.39-25.25,23.2,1.94,2.57,4.91,3.23,6.41,6.01l-19.9,18.86c-24.81-18.49-24.46-56.02,1.99-73.44,10.2-6.72,23.06-8.2,34.82-5.95Z"></path><path class="st4" d="M123.96,62.19l-18.9,18.86c-13.56-10.36-35.57-9.51-46.76,3.97-11.76-2.25-24.62-.76-34.82,5.95,11.09-43.04,64.93-59.02,99.44-31.18.94.76.89,2.26,1.04,2.4Z"></path><path class="st1" d="M83.17,145.55v28.78c-22.77,0-42.86,4.1-61.68-9.92l19.9-18.86c13.91-.09,27.87.12,41.79,0Z"></path><path class="st3" d="M230.41,150.51v22.82h-9.95v-60.54h23.38c.33,0,5.43,1.45,6.19,1.76,14.15,5.75,15.63,26.03,2.21,33.4-.96.53-4.88,2.54-5.41,2.54h-16.42ZM230.41,140.58h15.42c1.93,0,5.66-6.69,5.54-9.41s-4.04-8.46-6.54-8.46h-14.43v17.86Z"></path><path class="st3" d="M459.24,155.47h-31.84c1.64,7.89,9.29,13.22,17.15,9.65,5.52-2.51,4.07-7.17,13.69-2.69-.66,8.26-10.78,12.86-18.38,12.96-29.94.36-29.36-44.79-1.01-44.78,14.36,0,22.05,11.19,20.4,24.86ZM449.29,147.53c-1.95-10.97-18.94-10.97-20.89,0h20.89Z"></path><path class="st3" d="M302.04,174.33l-9.02-.43-.94-4.54c-11.14,14.25-35.67.86-26.72-15.25,4.72-8.49,18.65-9.47,26.72-5.59.56-7.9-6.41-10.3-13.22-8.72-2.7.63-4.13,3.62-6.22,3.81-1.83.17-8.27-3.34-6.97-6.01,7.05-8.06,23.41-9.83,31.44-2.52,1.22,1.11,4.93,6.75,4.93,7.98v31.26ZM278.88,154.69c-10.55,2.44-1.95,19.02,9.76,9.73,9.94-7.88-1.77-11.58-9.76-9.73Z"></path><path class="st3" d="M402.53,174.33v-27.29c0-6.97-12.14-8.92-15.94-3.73-.55.76-2.96,7.12-2.96,7.7v23.32c-3.28-.37-7.58,1.23-9.95-1.49v-41.18h9.95s.49,4.96.49,4.96c5.46-7.57,19.07-8.23,24.84-.95,6.51,8.22,2.45,26.9,3.38,37.04l-1.49,1.49-8.32.14Z"></path><path class="st3" d="M258.27,60.2h-15.92v-6.95h21.39c3.33,3.97,1.16,10.66-.96,14.92-10.02,20.16-42.4,12.8-44.29-9.47-1.97-23.18,23.26-35.63,40.77-20.79l-3.69,4.32c-2.18.55-4.86-2.77-7.22-3.4-14.6-3.88-24.82,6.17-22.82,20.79,2.41,17.62,30.39,18.91,32.74.58Z"></path><path class="st3" d="M371.69,81.54c-1.13,6.82-9.57,12.68-16.38,12.46-7.39-.24-21.31-10.69-8.17-12.03,5.18,9.39,19.72,5.75,17.58-5.88-12.38,9.46-25.53.21-24.92-14.42.55-13.14,13.4-20.07,24.45-12.37.9-3.48,4.38-1.64,7.44-1.99-1.22,10.35,1.64,24.37,0,34.24ZM352.49,52.47c-8.59,1.99-8.82,19.16,1.24,21.23,14.92,3.08,16.8-25.4-1.24-21.23Z"></path><path class="st3" d="M357.76,161.92c1.12,5.38,7.11,2.55,8.82,3.61l2.08,8.75c-25.14,6.16-20.93-15.8-20.84-32.71l-7.03-.43c-2.77-7.33-1.1-10.83,7.03-9.49v-11.92s9.95,0,9.95,0v11.92s9.95-.01,9.95-.01v9.36s-9.95.57-9.95.57c.84,5.94-1.14,14.84,0,20.34Z"></path><path class="st3" d="M595.54,32.41v46.64h-5.98s0-3.97,0-3.97c-8.42,9.21-23.57,4.27-25.62-7.68-2.73-15.94,10.23-27,24.63-18.12v-16.87h6.96ZM576.34,52.47c-8.36,2.5-8.81,19.16,1.25,21.24,15.75,3.25,15.59-26.28-1.25-21.24Z"></path><path class="st3" d="M457.01,31.68c7.25-.88,15.42,1.33,20.06,7.32l-3.55,4.22c-10.52-9.17-28.65-5.73-30.2,9.53-2.01,19.83,17.26,26.66,31.19,14.47l3.51,3.58c1.24,4.58-12.59,9.04-16.34,9.26-30.79,1.78-34.67-44.75-4.68-48.39Z"></path><path class="st3" d="M420.44,64.17h-24.87c1.19,10.47,13,13.16,18.5,4.04l5.37,1.94c-3.87,13.13-23.77,12.7-29.06.68-11.32-25.72,30.68-36.75,30.06-6.66ZM413.47,59.21c-1.67-10.07-15.62-9.98-16.91,0h16.91Z"></path><path class="st3" d="M465.21,131.65h8.96s0,5.95,0,5.95c5.28-5.07,11.49-9.85,18.91-5.37l-2.1,8.26c-22.32-2.3-14.07,18.91-16.26,32.91l-9.51.93v-42.67Z"></path><path class="st3" d="M310,132.64h8.96c-.37,7.72,1.8,2.51,4.62,1.14,4.11-2,7.7-2.54,12.29-2.14v9.93c-4.42-2-15.92,2.64-15.92,7.44v25.31h-9.95v-41.68Z"></path><path class="st3" d="M315.71,46.54c28.65-5.26,26.92,37.25,2,33.28-18.29-2.92-17.38-30.45-2-33.28ZM317.68,52.47c-10.29,2.31-9.12,22.42,3.53,21.42s11.78-24.86-3.53-21.42Z"></path><path class="st3" d="M505.73,46.54c24.87-5.11,28.46,29.94,7.49,33.28-22.15,3.53-25.49-29.59-7.49-33.28ZM507.7,52.47c-8.86,1.99-9.88,18.57.27,21.17,15.93,4.09,16.69-24.98-.27-21.17Z"></path><path class="st3" d="M279.89,46.54c24.92-5.13,28.78,29.88,7.49,33.28s-25.09-29.66-7.49-33.28ZM281.85,52.48c-11.22,2.58-7.56,22.72,3.68,21.61,13.67-1.36,11.82-25.18-3.68-21.61Z"></path><path class="st3" d="M537.83,47.3v22.33c0,5.6,14.92,5.38,14.92-2.98v-19.35h6.96v30.27c-2.49,2.33-7.61,2.98-7.46-1.48-4.37,4.68-13.22,5.29-17.95,1.02-.66-.59-3.45-5.16-3.45-5.49v-24.31h6.96Z"></path><rect class="st3" x="483.11" y="32.41" width="6.96" height="46.64"></rect><path class="st3" d="M384.62,32.41v46.64l-6.03-.43-.93-43.73c.4-3.54,4.29-2.38,6.97-2.48Z"></path><path class="st3" d="M413.47,59.21h-16.91c1.29-9.98,15.24-10.07,16.91,0Z"></path></svg>