<svg xmlns="http://www.w3.org/2000/svg" id="Layer_1" viewBox="0 0 400 200"><defs><style>      .st0 {        fill: #037af2;      }      .st1 {        fill: #0175ee;      }      .st2 {        fill: #fff;      }      .st3 {        fill: #0280f8;      }      .st4 {        fill: #0671e8;      }      .st5 {        fill: #0869e0;      }      .st6 {        fill: #0266e0;      }      .st7 {        fill: #0282f9;      }    </style></defs><path class="st2" d="M164.2,39.56l25.08,44.55,24.21-44.55h14.38v73.67h-11.4l-.53-.53v-55.25l-21.09,37.67c-.24.56-.66.53-1.17.59-3.26.38-7.32-.27-10.66-.08l-21.11-37.83v54.9l-.53.53h-11.23l-.53-.53V39.56h14.56Z"></path><path class="st2" d="M381.18,105.87c-4.03,4.4-8.72,7.86-14.92,8.41-37.34,3.32-37.94-60.22.37-57.19,3.99.32,8.52,2.38,11.55,4.93l2.99,2.8v-6.67h11.23v55.08h-11.23v-7.37ZM362.86,67.72c-17.96,2.14-18.5,38.8,5.48,36,4.49-.52,10.89-4.71,12.22-9.18.55-1.86.6-14.68.25-16.9-.21-1.36-2.01-4.05-2.96-5.11-3.89-4.35-9.32-5.49-14.99-4.81Z"></path><path class="st2" d="M250.32,90.08c.79,5.68,4.35,11.09,9.83,13.15,4.8,1.8,12.23,1.2,16.85-1.03,2.24-1.08,3.89-2.97,6.09-4.02.79,1.36,6.07,6.63,5.79,7.8-.14.57-2.06,1.85-2.66,2.29-9.66,7.15-25.24,8.45-35.51,1.96-20.8-13.12-14.44-51.42,11.71-53.14,19.24-1.26,27.63,12.04,28.27,29.65.04,1.07.27,2.63-.54,3.35h-39.82ZM279.09,81.31c-1.37-19.42-26.76-18.55-28.77,0h28.77Z"></path><path class="st2" d="M316.28,42.37v16.14h16.49v9.47h-16.49v27.89c0,.18.48,2.19.59,2.57,2.16,7.3,10.05,5.65,15.9,4.97v9.3c-6.31,2.34-15.23,2.42-21.02-1.44-5.03-3.35-6.67-9.63-7.05-15.41-.58-9.08.43-18.75,0-27.89h-10.88v-9.47h10.88v-16.14h11.58Z"></path><path class="st7" d="M61.58,64.82c2.18,2.84,3.74,6.09,5.61,9.12-3.99,6.54-7.39,13.46-11.43,19.97-4.98,8.01-12.44,19.57-22.76,20.39-16.88,1.34-24.12-11.36-24.04-26.67,4.43.3,8.54-2.28,12.98-2.1-.14,5.02-.14,12.78,5.15,15.37,7.4,3.63,12.81-4.17,16.54-9.3,5.16-7.11,9.52-15.09,14.44-22.39.76-1.14,2.18-3.69,3.16-4.38.08-.05.27.05.35,0Z"></path><path class="st3" d="M117.36,110.08c-.65-1.93-1.46-4.16-1.72-6.18-1.85-14.62,7.19-29.29-4.79-41.16-.51-.51-.71-.85-1.56-.72-1.85-4.09-6.23-10.19-10.06-12.57-11.01-6.83-18.97,2.96-24.32,11.51-.59-.79-2.28-2.31-3.16-3.51s-1.82-2.97-2.81-4.21c8.34-12.03,20.39-21.46,35.19-12.91,17.35,10.02,25.03,40.94,19.71,59.22-1.27,4.37-3.1,7.52-6.49,10.53Z"></path><path class="st6" d="M68.95,53.24c.99,1.24,1.89,2.96,2.81,4.21-3.35,2.53-6.71,4.99-10.17,7.37-.08.05-.27-.05-.35,0-5.22-8.59-15.75-20.62-26.32-12.11-4.88,3.93-8.28,10.79-10.17,16.67l-12.63-1.75c9.14-31.26,34.37-42.57,56.83-14.38Z"></path><path class="st5" d="M74.91,60.96c7.08,9.47,12.69,22.94,20,32.98-1.25,4.57-3.19,8.93-5.61,12.98-8.58-8.84-15.52-22.31-22.1-32.98-1.87-3.03-3.43-6.28-5.61-9.12,3.46-2.38,6.83-4.84,10.17-7.37.88,1.2,2.57,2.72,3.16,3.51Z"></path><path class="st2" d="M26.68,137.93c1.92.23,4.8,1.56,6.15,2.97,3.41,3.56,2.85,11.12-2.25,12.8l-.22.72c7.54,1.37,8.62,11.7,2.57,15.73-.86.57-3.95,1.81-4.85,1.81H8.96v-34.03c5.6.48,12.25-.65,17.72,0ZM14.22,152.66h10.7c.76,0,3.11-.95,3.69-1.57,1.43-1.53,1.5-5.24.14-6.82-.62-.73-2.95-1.78-3.83-1.78h-10.7v10.17ZM14.22,167.4h12.1c1.1,0,3.5-1.15,4.23-2.09,1.3-1.68,1.27-5.24-.36-6.69-.51-.46-3.29-1.39-3.87-1.39h-12.1v10.17Z"></path><path class="st2" d="M229.63,160.73v11.23h-5.26v-34.03h17.72c.3,0,3.43,1.1,3.92,1.34,7.17,3.5,7.27,16.32.23,20-.56.29-3.75,1.47-4.15,1.47h-12.45ZM229.63,155.82h10.35c.33,0,2.79-.76,3.23-.98,3.93-2,3.93-9.02,0-11.02-.44-.22-2.89-.98-3.23-.98h-10.35v12.98Z"></path><path class="st2" d="M276.28,171.96h-4.91v-3.51c-.55.06-.54.81-1.03,1.25-3.1,2.76-9.09,3.78-12.63,1.36-4.03-2.76-3.88-9.42.21-12.02.55-.35,3.33-1.46,3.8-1.46h9.65c.31-7.32-8.38-7.43-12.15-2.83l-3.24-2.89c3.73-6.38,16.18-6.88,19.31.22.18.42.98,2.65.98,2.87v17.01ZM271.37,161.43h-8.24c-1.69,0-3.56,2.21-3.33,4,.72,5.6,13.1,1.74,11.57-4Z"></path><path class="st2" d="M158.41,161.78h-17.89c.85,7.4,8.28,8.25,13.46,4.25l2.65,2.9c-2.76,3.41-7.53,4.19-11.69,3.69-13.26-1.59-13.66-26.72,3.48-25.59,7.76.51,10.31,7.96,9.98,14.75ZM153.5,157.92c-.78-9.05-12.17-8.8-12.98,0h12.98Z"></path><path class="st2" d="M373.11,161.78h-17.89c.85,7.4,8.28,8.25,13.46,4.25l2.65,2.9c-2.76,3.41-7.53,4.19-11.69,3.69-13.26-1.59-13.66-26.72,3.48-25.59,7.76.51,10.31,7.96,9.98,14.75ZM368.2,157.92c-.78-9.05-12.17-8.8-12.98,0h12.98Z"></path><path class="st2" d="M47.2,147.75v15.61c0,.13.6,1.78.74,2.07,2.03,4.24,7.71,2.96,10.14-.31.2-.26,1.05-1.65,1.05-1.75v-15.61h5.26v24.21h-5.26v-3.16c-3.62,4.85-12.17,5.72-15.37.11-.47-.82-1.47-3.34-1.47-4.14v-17.01h4.91Z"></path><path class="st2" d="M88.82,149.98c.26.27,1.21,1.51,1.16,1.77l-3.02,2.64c-2.05-1.71-3.75-3.1-6.62-3.16-2.22-.04-6.49,1.22-4.76,4.09s12.25,1.33,14.42,6.98c4.1,10.62-12.02,13.13-18.43,7.9-3.49-2.84-1.43-2.9,1.09-5.23,1.54.93,2.29,2.21,4.09,2.86,2.8,1.01,10.54.97,8.48-3.58-1.3-2.86-13.07-1.71-14.74-7.36-3.02-10.18,12.64-12.75,18.31-6.91Z"></path><path class="st2" d="M181.09,149.98c.26.27,1.21,1.51,1.16,1.77l-3.02,2.64c-2.05-1.71-3.75-3.1-6.62-3.16-2.22-.04-6.49,1.22-4.76,4.09s12.25,1.33,14.42,6.98c4.1,10.62-12.02,13.13-18.43,7.9-3.49-2.84-1.43-2.9,1.09-5.23,1.54.93,2.29,2.21,4.09,2.86,2.8,1.01,10.54.97,8.48-3.58-1.3-2.86-13.07-1.71-14.74-7.36-3.02-10.18,12.64-12.75,18.31-6.91Z"></path><path class="st2" d="M205.65,149.98c.26.27,1.21,1.51,1.16,1.77l-3.02,2.64c-2.05-1.71-3.75-3.1-6.62-3.16-2.22-.04-6.49,1.22-4.76,4.09s12.25,1.33,14.42,6.98c4.1,10.62-12.02,13.13-18.43,7.9-3.49-2.84-1.43-2.9,1.09-5.23,1.54.93,2.29,2.21,4.09,2.86,2.8,1.01,10.54.97,8.48-3.58-1.3-2.86-13.07-1.71-14.74-7.36-3.02-10.18,12.64-12.75,18.31-6.91Z"></path><path class="st2" d="M129.99,171.96h-4.91v-14.56c0-.24-.54-2.45-.68-2.83-1.38-3.75-6.48-3.7-9.12-1.36-.55.49-2.48,3.28-2.48,3.84v14.91h-4.91v-24.21h4.91l.18,3.51c3.41-5.58,12.6-6.1,15.68.11.38.77,1.34,3.59,1.34,4.27v16.31Z"></path><path class="st2" d="M344.69,171.96h-4.91v-14.56c0-.24-.54-2.45-.68-2.83-1.38-3.75-6.48-3.7-9.12-1.36-.55.49-2.48,3.28-2.48,3.84v14.91h-4.91v-24.21h4.91l.18,3.51c3.41-5.58,12.6-6.1,15.68.11.38.77,1.34,3.59,1.34,4.27v16.31Z"></path><path class="st0" d="M117.36,110.08c-4.17,3.69-8.14,4.46-13.68,4.21l1.4-12.28c2.27,0,5.29-1.49,6.66-3.33,5.3-7.08,1.09-28.83-2.46-36.66.85-.13,1.05.22,1.56.72,11.98,11.87,2.94,26.54,4.79,41.16.26,2.02,1.07,4.25,1.72,6.18Z"></path><path class="st2" d="M309.26,140.38v7.37h8.07v4.21h-8.07v12.45c0,.11.73,1.72.88,1.92,1.87,2.47,7.25.78,7.54,1.06l-.02,4.54c-3.78.63-9.16,1.01-11.71-2.46-.4-.55-1.6-3.13-1.6-3.66v-13.86h-4.91v-4.21h4.91v-7.37h4.91Z"></path><path class="st1" d="M24.75,69.38c-1.71,5.32-2.65,10.56-2.81,16.14-4.44-.18-8.55,2.4-12.98,2.1.03-6.81,1.26-13.51,3.16-20l12.63,1.75Z"></path><path class="st4" d="M105.08,102.01l-1.4,12.28c-6.92-.31-9.92-2.77-14.38-7.37,2.43-4.05,4.36-8.41,5.61-12.98,2.16,2.96,6.24,8.07,10.17,8.07Z"></path><path class="st2" d="M296.63,147.05v5.26c-2.52-.82-5.43-.27-7.16,1.78-.38.45-1.61,2.53-1.61,2.95v14.91h-4.91v-24.21h4.91c.21.82-.46,2.69.35,3.15,1.49-3.31,4.97-4.29,8.42-3.86Z"></path><path class="st2" d="M392.41,147.05v5.26c-2.52-.82-5.43-.27-7.16,1.78-.38.45-1.61,2.53-1.61,2.95v14.91h-4.91v-24.21h4.91c.21.82-.46,2.69.35,3.15,1.49-3.31,4.97-4.29,8.42-3.86Z"></path><rect class="st2" x="95.96" y="147.75" width="4.91" height="24.21"></rect><path class="st2" d="M97.27,137.3c6.21-1.42,5.77,7.97-.27,6.08-2.47-.78-2.42-5.47.27-6.08Z"></path></svg>