<svg xmlns="http://www.w3.org/2000/svg" id="Layer_1" viewBox="0 0 600 200"><defs><style>      .st0 {        fill: #fff;      }      .st1 {        fill: #4d791b;      }      .st2 {        fill: #88bc27;      }      .st3 {        fill: #fcfdfb;      }    </style></defs><path class="st2" d="M43.97,49c3.9,3.36,8.55,2.61,11.73,6.93,1.08,1.47,1.6,3.29,2.56,4.82.89.56,2.82-.42,4.16-.26l-4.15,83.64c-.09,0-.56.6-.99.37l-53.91-10.02,7.72-57.8c.88-1.95,9.35-3.47,11.58-4.32,1.53-6.69,5.01-15.23,10.47-19.67,1.97-1.6,4.19-2.3,6.22-3.69h4.61ZM34.21,68.69c.52-4.03,2.28-8.73,4.91-11.88.78-.93,4.03-3.38,4.16-3.67.83-1.77-4.25-.2-4.98.1-6.11,2.48-10.14,11.86-11.86,17.83l7.77-2.37ZM50.43,63.71c1.13-.4,4.57-.57,4.6-2.03.04-1.8-2.84-6.29-5.06-6.24l.46,8.27ZM46.27,55.9c-4.49,1.75-7.42,6.95-8.3,11.49l9.01-2.74c.61-2.95.16-5.94-.72-8.75ZM48.1,83.04c-6.33-2.39-14.81-1.55-20.24,2.54-6.1,4.6-9.01,14.66-4.18,21.09,2.06,2.74,12.43,8.92,6.9,12.87-4.31,3.08-11.04-3.78-11.98-2.98-.51,5.49-4.48,7.08,1.42,10.76,13.62,8.5,29.32-2.8,23.4-17.33-2.13-5.22-11.01-9.28-11.78-12.16-1.85-6.85,9.54-6.05,13.26-3.79l3.21-11Z"></path><path class="st0" d="M593.93,88.07v.92l-1.68,2.26c-7.06-3.26-14.94-.19-13.51,8.51.83,5.06,10.72,6.63,11.5,15.2,1.12,12.26-11.25,17.22-21.16,12.12l.87-3.62c6.27,4.13,16.67,2.36,16.47-6.54-.18-8.17-9.86-8.67-11.54-16.08-2.59-11.42,9.67-17.32,19.05-12.77Z"></path><path class="st1" d="M58.27,144.14l4.15-83.64c2.15.27,4.72,4.94,6.47,5.74s5.64-.12,7.98.78l.69.69,10.28,69.32-.24,1.18c-9.28,1.54-19.99,5.55-29.33,5.94Z"></path><path class="st0" d="M234.06,86.69l-.46,5.97c7.43-9.16,22.15-9.36,24.24,4.11,2.72,17.47-10.37,37.21-29.78,31.27l-2.77,16.55h-12l10.61-57.91h10.15ZM239.93,95.98c-3.86.79-6.55,6.56-7.49,10-.61,2.23-2.19,9.74-2.12,11.73.09,2.51,4.19,2.82,6.17,2.41,6.41-1.33,11.21-16.01,8.87-21.49-.99-2.31-3-3.15-5.43-2.65Z"></path><path class="st0" d="M156.08,68.76l-4.15,22.51c1.66.23,2.3-1.4,3.54-2.21,2.16-1.42,4.2-2.57,6.85-2.83,21.43-2.07,6.75,30.14,6.59,41.03l-.59.79h-11.3c.03-7.53,6.43-23.71,4.41-30.35-.76-2.5-4.37-2.27-6.23-1.11-7.85,4.9-7.09,23.7-10.4,31.46h-11.3l11.07-59.29h11.53Z"></path><path class="st0" d="M322.18,87.15l3.46,26.66,9.92-26.66h12.46c-4.79,9.91-8.97,20.2-13.91,30.04-5.89,11.74-13.22,25.97-26.89,29.72l-3.5-10.12c5.7-1.42,11.24-5.71,13.36-11.29l-6.9-38.35h12Z"></path><path class="st0" d="M208.52,122.83c-2.9,2.89-8.01,5.6-12.12,6.09-31.34,3.68-21.96-47.13,7.69-42.48,16.92,2.65,13.94,26.92,4.43,36.4ZM198.43,95.05c-7.21.64-11.23,16.16-8.7,21.77,2.06,4.57,6.93,4.13,9.91.62,3.91-4.6,8.4-23.24-1.21-22.39Z"></path><path class="st0" d="M280.19,128.05l6-32.17h-5.08s1.41-8.71,1.41-8.71l5.45-.09c1.51-13.38,11.23-21.94,24.96-18.3l-1.84,9.15c-1.47.34-2.92-.51-4.31-.42-4.29.27-7.09,5.79-6.75,9.64h7.84l-1.81,8.53-7.83.25-6.04,32.12h-12Z"></path><path class="st0" d="M131.17,96.34c-.43.39-7.44-3.02-11.3-.46-5.8,3.84,3.85,7.9,6.23,9.88,4.43,3.67,5.97,6.96,4.47,12.74-2.93,11.33-19.96,12.98-28.73,7.72-.48-.76,2.01-8.05,2.84-8.24,3.95,2.17,15.75,4.95,13.93-2.93-.7-3.01-9.21-5.67-11.45-11.11-4.03-9.78,6.05-17.19,14.99-17.73,1.96-.12,11.25.09,11.31,2.52l-2.3,7.61Z"></path><path class="st0" d="M360.48,127.59l-3.18,17.2c-.23.34-4.05.82-3.75-.42l10.35-56.79,3.49-.43-.69,7.36c1.6-1.08,2.62-2.86,4.16-4.13,7.81-6.46,19.16-4.94,20.47,6.24,2,17.08-11.52,38.52-30.86,30.97ZM361.45,123.85c14.79,8.17,26.03-10.64,26.26-23.17.13-7.17-4.04-13.16-11.79-9.87-11.01,4.68-12.77,22.82-14.47,33.04Z"></path><polygon class="st0" points="277.89 87.15 269.81 128.05 258.51 128.05 266.35 87.15 277.89 87.15"></polygon><path class="st0" d="M429.68,87.61c-2.67,13.53-6.2,27.01-6.46,40.9-1.02-.1-3.22.47-3.63-.76l.85-9.81-3.45,5.06c-12.46,12.88-24.42,4.6-21.25-12.44,3.02-16.22,17.05-27.95,33.94-22.95ZM425.07,90.37c-16.1-3.94-27.93,14.8-25.63,28.97,1.41,8.72,9.41,7.57,14.58,2.52,8.14-7.96,8.87-20.99,11.05-31.5Z"></path><path class="st0" d="M502.58,128.51c.57-8.42,3.34-16.84,4.48-25.18.96-7,1.11-16.2-9.08-12.72-13.51,4.6-12.94,25.79-15.79,37.13-.27,1.2-3.75,1.12-4.01.05l7.35-40.61c5.55-1.3,3.07,4,2.28,7.32.75.61,3.38-3.23,4.15-3.91,7.62-6.79,19.64-5.38,19.86,6.42l-5.55,30.35-.75,1.09-2.94.06Z"></path><path class="st0" d="M540.87,122.99l.42,2.91c-4.19,3.4-12.6,4.21-17.35,1.78-14.35-7.34-3.62-44.31,16.59-40.89,5.74.97,7.8,7.62,5.97,12.62-3.17,8.7-16.81,9.22-24.58,9.53-2.96,13.98,6.24,20.96,18.94,14.05ZM522.42,105.53c6.7-.06,21.47-.72,20.77-10.33-.19-2.63-2.27-4.91-4.9-5.25-8.24-1.09-14.25,8.69-15.87,15.58Z"></path><path class="st0" d="M479.05,87.15l-.53,3.61-9.65.36c-.91,8.88-4.45,18.74-5.07,27.5-.39,5.6.06,8.21,6.47,6.68l-.06,3.15c-8.64,2.1-11.17-1.67-10.49-9.76.76-9.01,4.47-18.71,5.02-27.87l-5.55-.23.9-3.24,5.81-.64c.87-3.72.08-8,5.28-7.83l-1.38,8.27h9.23Z"></path><path class="st0" d="M455.98,86.69l-.98,4.08c-3.87-.55-6.66,1.83-8.94,4.65-6.75,8.36-6.64,22.2-9.07,32.33l-.68.7-3.4.06,7.12-40.93,3.49-.43c.41,2.15-.74,4.29-.88,6.26-.05.69-.38,1.28.64,1.09,2.84-4.51,6.78-8.82,12.69-7.81Z"></path><path class="st0" d="M571.79,86.69l-.48,4.11c-7.92-.78-12.42,8.65-14.15,15.09-1.94,7.21-2.51,15.27-4.33,22.57l-3.65.05,7.13-40.93c5.51-2.48,2.72,4.68,2.1,7.6l.92.23c1.67-5.09,6.79-9.58,12.47-8.73Z"></path><path class="st0" d="M272.69,69.79c11.04-2.27,10.29,13.02.37,12.31-6.98-.5-6.23-11.11-.37-12.31Z"></path><path class="st3" d="M48.1,83.04l-3.21,11c-3.72-2.26-15.12-3.06-13.26,3.79.78,2.88,9.66,6.94,11.78,12.16,5.92,14.53-9.77,25.83-23.4,17.33-5.9-3.68-1.93-5.28-1.42-10.76.94-.8,7.67,6.05,11.98,2.98,5.53-3.95-4.84-10.13-6.9-12.87-4.83-6.43-1.92-16.49,4.18-21.09,5.43-4.09,13.91-4.93,20.24-2.54Z"></path></svg>