<svg xmlns="http://www.w3.org/2000/svg" viewBox="0 0 50 50" fill="none">
  <path d="M41 4H9C6.24 4 4 6.24 4 9v32c0 2.76 2.24 5 5 5h32c2.76 0 5-2.24 5-5V9c0-2.76-2.24-5-5-5z" fill="#010101"/>
  <path d="M34.21 14.57a8.57 8.57 0 01-5.95-5.97h-4.32v21.93c0 1.88-1.53 3.4-3.41 3.4a3.41 3.41 0 01-3.41-3.4 3.41 3.41 0 013.41-3.41c.33 0 .65.05.95.13V22.8a7.74 7.74 0 00-.95-.06 7.73 7.73 0 00-7.73 7.72 7.73 7.73 0 007.73 7.73 7.73 7.73 0 007.73-7.73V20.83a13.06 13.06 0 007.64 2.44V18.9a8.61 8.61 0 01-1.69-4.33z" fill="#fff"/>
</svg>
