<svg xmlns="http://www.w3.org/2000/svg" viewBox="0 0 24 24" fill="#21759b">
  <path d="M12 2C6.486 2 2 6.486 2 12s4.486 10 10 10 10-4.486 10-10S17.514 2 12 2zm0 19.5c-5.247 0-9.5-4.253-9.5-9.5S6.753 2.5 12 2.5s9.5 4.253 9.5 9.5-4.253 9.5-9.5 9.5z"/>
  <path d="M3.518 12c0 3.17 1.843 5.916 4.514 7.263L4.133 9.99A8.457 8.457 0 003.518 12zm14.977-.477c0-1.01-.363-1.71-.675-2.253-.415-.675-.803-1.246-.803-1.921 0-.753.571-1.454 1.376-1.454h.103A8.487 8.487 0 0012 3.518c-2.85 0-5.36 1.462-6.83 3.681h.518c.831 0 2.118-.1 2.118-.1.428-.025.478.6.051.649 0 0-.43.05-.909.076L9.99 14.8l1.832-5.495-.896-.01c-.428-.025-.377-.675.051-.649 0 0 1.312.1 2.092.1.831 0 2.118-.1 2.118-.1.428-.025.478.6.051.649 0 0-.43.05-.91.076l2.98 8.86.822-2.745c.356-.99.578-1.895.578-2.657zM12.214 12.8l-2.475 7.192c.74.217 1.52.335 2.328.335 1.023 0 1.991-.195 2.855-.525L12.214 12.8zm6.007-4.27a8.51 8.51 0 01.277 2.122c0 .958-.19 2.053-.757 3.412l-2.12 6.135C18.055 18.762 20.5 15.662 20.5 12c0-1.286-.272-2.508-.279-2.47z"/>
</svg>
